<svg width="358" height="214" viewBox="0 0 358 214" fill="none" xmlns="http://www.w3.org/2000/svg">
<path d="M272.021 23.7496C259.18 24.4252 246.332 25.0675 233.492 25.79C200.578 27.6498 167.859 30.6871 136.314 41.2372C112.482 49.205 90.126 59.8823 71.2555 76.9084C64.0171 83.4311 57.7669 90.7701 52.9859 99.34C44.8927 113.864 46.1548 127.746 55.717 141.025C64.3042 152.954 76.5106 159.931 89.7922 165.27C106.032 171.799 123.059 175.057 140.401 176.482C176.352 179.426 211.716 176.054 246.239 165.31C266.145 159.115 284.928 150.626 300.747 136.61C309.648 128.722 316.913 119.544 319.985 107.863C325.668 86.2342 320.967 74.9415 305.235 62.9263C289.309 50.7638 270.886 44.4016 251.3 41.2774C236.877 38.976 222.5 38.8222 208.478 43.853C204.471 45.2914 200.605 47.1044 197.44 49.9409C194.669 52.4229 193.48 49.4793 192.385 48.4156C190.896 46.9639 193.293 46.3819 194.094 45.7664C203.142 38.8155 213.693 35.6979 224.824 35.0022C254.786 33.1223 282.351 40.5348 307.224 57.5007C313.528 61.7956 319.044 67.0272 322.91 73.6972C330.155 86.2075 328.819 99.2597 324.412 112.145C319.15 127.525 308.253 138.61 295.298 147.769C276.107 161.336 254.492 169.378 231.822 174.716C192.465 183.989 152.854 185.808 113.057 177.734C95.7017 174.208 79.1616 168.448 64.7115 157.804C53.1995 149.328 45.0463 138.537 42.4889 124.1C40.6993 114.004 43.6574 104.886 48.4986 96.2626C56.5383 81.9526 68.304 71.155 81.5855 61.9161C102.306 47.5125 125.33 38.2468 149.596 31.9181C178.169 24.4654 207.242 20.9063 236.757 21.5218C248.516 21.7693 260.255 22.833 272.007 23.5221C272.014 23.5957 272.021 23.676 272.034 23.7496H272.021Z" fill="#D06146"/>
</svg>
