<svg width="450" height="437" viewBox="0 0 450 437" fill="none" xmlns="http://www.w3.org/2000/svg">
<path d="M431.663 241.619L343.099 212.967L315.174 299.462L403.738 328.114L431.663 241.619Z" fill="#D06146" stroke="black" stroke-width="2.5" stroke-linecap="round" stroke-linejoin="round"/>
<path d="M324.82 269.593L360.229 248.062L373.83 285.446L397.453 275.407L412.829 299.96L403.742 328.11L315.175 299.458L324.82 269.593Z" fill="#F5C745" stroke="black" stroke-width="2.5" stroke-linecap="round" stroke-linejoin="round"/>
<path d="M414.583 259.706C416.484 253.816 413.137 247.459 407.106 245.508C401.076 243.557 394.645 246.751 392.744 252.641C390.842 258.531 394.189 264.888 400.22 266.839C406.251 268.79 412.681 265.596 414.583 259.706Z" fill="#F5C745" stroke="black" stroke-width="2.5" stroke-linecap="round" stroke-linejoin="round"/>
<path d="M188.703 375.039C204.555 359.171 204.555 333.444 188.703 317.576C172.851 301.708 147.151 301.708 131.299 317.576C115.447 333.444 115.447 359.171 131.299 375.039C147.151 390.908 172.851 390.908 188.703 375.039Z" fill="#D06146" stroke="black" stroke-width="2.5" stroke-linecap="round" stroke-linejoin="round"/>
<path d="M126.122 296.865L215.347 317.302" stroke="black" stroke-width="2.5" stroke-linecap="round" stroke-linejoin="round"/>
<path d="M129.558 297.334C129.153 299.106 127.391 300.211 125.621 299.806C123.85 299.402 122.747 297.637 123.151 295.865C123.555 294.093 125.318 292.988 127.088 293.393C128.858 293.798 129.962 295.562 129.558 297.334Z" fill="black" stroke="black" stroke-width="2.5" stroke-linecap="round" stroke-linejoin="round"/>
<path d="M217.74 317.533C217.336 319.305 215.574 320.41 213.803 320.005C212.033 319.601 210.929 317.837 211.334 316.064C211.738 314.292 213.5 313.187 215.271 313.592C217.041 313.997 218.145 315.761 217.74 317.533Z" fill="black" stroke="black" stroke-width="2.5" stroke-linecap="round" stroke-linejoin="round"/>
<path d="M168.786 313.458C172.329 313.458 175.201 310.583 175.201 307.037C175.201 303.491 172.329 300.616 168.786 300.616C165.244 300.616 162.372 303.491 162.372 307.037C162.372 310.583 165.244 313.458 168.786 313.458Z" fill="#FFFEF8" stroke="black" stroke-width="2.5" stroke-linecap="round" stroke-linejoin="round"/>
<path d="M108.102 375.699L197.328 396.136" stroke="black" stroke-width="2.5" stroke-linecap="round" stroke-linejoin="round"/>
<path d="M111.538 376.168C111.134 377.94 109.371 379.045 107.601 378.64C105.831 378.236 104.727 376.471 105.131 374.699C105.535 372.927 107.298 371.822 109.068 372.227C110.839 372.632 111.942 374.396 111.538 376.168Z" fill="black" stroke="black" stroke-width="2.5" stroke-linecap="round" stroke-linejoin="round"/>
<path d="M199.721 396.367C199.316 398.139 197.554 399.244 195.784 398.839C194.013 398.435 192.91 396.671 193.314 394.898C193.718 393.126 195.48 392.021 197.251 392.426C199.021 392.831 200.125 394.595 199.721 396.367Z" fill="black" stroke="black" stroke-width="2.5" stroke-linecap="round" stroke-linejoin="round"/>
<path d="M150.767 392.296C154.309 392.296 157.181 389.422 157.181 385.875C157.181 382.329 154.309 379.454 150.767 379.454C147.224 379.454 144.352 382.329 144.352 385.875C144.352 389.422 147.224 392.296 150.767 392.296Z" fill="#FFFEF8" stroke="black" stroke-width="2.5" stroke-linecap="round" stroke-linejoin="round"/>
<path d="M344.824 123.218C318.458 123.218 297.087 144.615 297.087 171.005C297.087 197.395 318.462 218.791 344.824 218.791C371.187 218.791 392.562 197.395 392.562 171.005C392.562 144.615 371.187 123.218 344.824 123.218ZM344.824 199.632C329.032 199.632 316.226 186.814 316.226 171.005C316.226 155.196 329.032 142.377 344.824 142.377C360.617 142.377 373.422 155.196 373.422 171.005C373.422 186.814 360.617 199.632 344.824 199.632Z" fill="#F5C745" stroke="black" stroke-width="2.5" stroke-linecap="round" stroke-linejoin="round"/>
<mask id="mask0_68_3" style="mask-type:luminance" maskUnits="userSpaceOnUse" x="297" y="123" width="96" height="96">
<path d="M344.824 123.218C318.458 123.218 297.087 144.615 297.087 171.005C297.087 197.395 318.462 218.791 344.824 218.791C371.187 218.791 392.562 197.395 392.562 171.005C392.562 144.615 371.187 123.218 344.824 123.218ZM344.824 199.632C329.032 199.632 316.226 186.814 316.226 171.005C316.226 155.196 329.032 142.377 344.824 142.377C360.617 142.377 373.422 155.196 373.422 171.005C373.422 186.814 360.617 199.632 344.824 199.632Z" fill="white"/>
</mask>
<g mask="url(#mask0_68_3)">
<path d="M306.562 130.691L332.755 153.229V187.465L303.76 217.476C303.76 217.476 276.541 194.238 285.183 168.488C293.825 142.737 306.562 130.691 306.562 130.691Z" fill="#8CE597" stroke="black" stroke-width="2.5" stroke-linecap="round" stroke-linejoin="round"/>
<path d="M332.755 187.465H361.348L385.253 213.337C385.253 213.337 376.268 229.672 344.121 226.212C311.974 222.753 303.765 217.476 303.765 217.476L332.759 187.465H332.755Z" fill="#AB594B" stroke="black" stroke-width="2.5" stroke-linecap="round" stroke-linejoin="round"/>
<path d="M385.253 213.337L361.348 187.465V154.892L388.026 123.214C388.026 123.214 406.794 148.944 401.725 169.847C396.656 190.747 385.253 213.337 385.253 213.337Z" fill="#284D82"/>
</g>
<path d="M344.824 123.218C318.458 123.218 297.087 144.615 297.087 171.005C297.087 197.395 318.462 218.791 344.824 218.791C371.187 218.791 392.562 197.395 392.562 171.005C392.562 144.615 371.187 123.218 344.824 123.218ZM344.824 199.632C329.032 199.632 316.226 186.814 316.226 171.005C316.226 155.196 329.032 142.377 344.824 142.377C360.617 142.377 373.422 155.196 373.422 171.005C373.422 186.814 360.617 199.632 344.824 199.632Z" stroke="black" stroke-width="2.5" stroke-linecap="round" stroke-linejoin="round"/>
<path d="M373.422 123.218L346.445 150.004L339.695 169.847C339.695 169.847 331.093 177.673 333.046 180.19C334.998 182.707 340.677 179.352 344.121 174.602L364.036 166.497L394.324 138.27L373.422 123.222V123.218Z" fill="#FFFEF8" stroke="black" stroke-width="2.5" stroke-linecap="round" stroke-linejoin="round"/>
<path d="M346.445 150.004C346.445 150.004 348.398 167.051 364.036 166.493L346.445 150.004Z" fill="#FFFEF8"/>
<path d="M346.445 150.004C346.445 150.004 348.398 167.051 364.036 166.493" stroke="black" stroke-width="2.5" stroke-linecap="round" stroke-linejoin="round"/>
<path d="M339.691 169.847C339.691 169.847 339.998 176.277 344.117 174.598L339.691 169.847Z" fill="#FFFEF8"/>
<path d="M339.691 169.847C339.691 169.847 339.998 176.277 344.117 174.598" stroke="black" stroke-width="2.5" stroke-linecap="round" stroke-linejoin="round"/>
<path d="M377.594 110.877L385.253 112.831C385.253 112.831 396.98 90.4712 404.518 90.4712C412.057 90.4712 423.561 101.906 424.434 109.169C425.307 116.436 403.366 128.061 403.366 128.061L401.729 137.983C401.729 137.983 392.238 137.145 385.258 129.878C378.277 122.611 377.598 110.873 377.598 110.873L377.594 110.877Z" fill="#D06146" stroke="black" stroke-width="2.5" stroke-linecap="round" stroke-linejoin="round"/>
<path d="M368.782 119.261C368.782 119.261 377.986 138.545 394.324 145.254L401.725 137.987C401.725 137.987 381.381 124.29 377.594 110.877L368.782 119.261Z" fill="#D06146" stroke="black" stroke-width="2.5" stroke-linecap="round" stroke-linejoin="round"/>
<path d="M80.1429 114.344C89.7793 117.46 83.2634 128.324 83.2634 128.324L122.229 140.928C122.229 140.928 127.682 129.72 115.447 125.763C103.211 121.806 80.1389 114.34 80.1389 114.34L80.1429 114.344Z" fill="#F5C745" stroke="black" stroke-width="2.5" stroke-linecap="round" stroke-linejoin="round"/>
<path d="M76.8648 190.524C76.8648 190.524 85.2158 195.873 89.7793 181.731C94.3428 167.589 104.472 136.219 104.472 136.219C104.472 136.219 106.849 122.983 117.581 126.455L77.8712 113.608C67.1394 110.136 64.7627 123.372 64.7627 123.372C64.7627 123.372 54.6372 154.742 50.0696 168.884C46.7268 179.239 41.5569 179.101 41.5569 179.101L76.8648 190.524Z" fill="#D06146" stroke="black" stroke-width="2.5" stroke-linecap="round" stroke-linejoin="round"/>
<path d="M76.8648 190.524C67.2284 187.408 73.7443 176.544 73.7443 176.544L34.7783 163.94C34.7783 163.94 29.3255 175.148 41.561 179.105C53.7964 183.062 76.8688 190.528 76.8688 190.528L76.8648 190.524Z" fill="#F5C745" stroke="black" stroke-width="2.5" stroke-linecap="round" stroke-linejoin="round"/>
<path d="M71.8242 123.198L99.7431 132.233" stroke="black" stroke-width="2.5" stroke-linecap="round" stroke-linejoin="round"/>
<path d="M68.8371 132.439L96.76 141.475" stroke="black" stroke-width="2.5" stroke-linecap="round" stroke-linejoin="round"/>
<path d="M65.8541 141.685L93.7769 150.716" stroke="black" stroke-width="2.5" stroke-linecap="round" stroke-linejoin="round"/>
<path d="M62.871 150.927L90.7939 159.962" stroke="black" stroke-width="2.5" stroke-linecap="round" stroke-linejoin="round"/>
<path d="M59.8879 160.168L87.8067 169.204" stroke="black" stroke-width="2.5" stroke-linecap="round" stroke-linejoin="round"/>
<path d="M312.091 140.953L187.239 100.563C185.598 100.032 184.28 98.9764 183.415 97.6492C182.311 95.9579 181.952 93.8255 182.61 91.7821L204.806 23.0355C205.392 21.2147 206.681 19.8106 208.29 19.0094C209.899 18.2123 211.823 18.0181 213.69 18.621L338.543 59.0111C340.192 59.5452 341.514 60.6094 342.379 61.9447C343.47 63.6361 343.826 65.7604 343.171 67.7916L320.976 136.538C320.487 138.051 319.517 139.278 318.28 140.107C316.538 141.276 314.274 141.657 312.091 140.953Z" fill="black" stroke="black" stroke-width="2.5" stroke-linecap="round" stroke-linejoin="round"/>
<path d="M308.85 134.794L183.997 94.4041C182.356 93.874 181.038 92.818 180.173 91.4908C179.074 89.7994 178.71 87.667 179.369 85.6236L201.564 16.8771C202.15 15.0562 203.439 13.6522 205.048 12.851C206.657 12.0539 208.581 11.8597 210.448 12.4626L335.301 52.8527C336.95 53.3868 338.272 54.451 339.137 55.7863C340.228 57.4776 340.584 59.6019 339.929 61.6332L317.734 130.38C317.245 131.893 316.275 133.119 315.038 133.949C313.296 135.118 311.032 135.498 308.85 134.794Z" fill="#FFD8A4" stroke="black" stroke-width="2.5" stroke-linecap="round" stroke-linejoin="round"/>
<mask id="mask1_68_3" style="mask-type:luminance" maskUnits="userSpaceOnUse" x="179" y="12" width="162" height="124">
<path d="M308.85 134.794L183.997 94.4041C182.356 93.874 181.038 92.818 180.173 91.4908C179.074 89.7994 178.71 87.667 179.369 85.6236L201.564 16.8771C202.15 15.0562 203.439 13.6522 205.048 12.851C206.657 12.0539 208.581 11.8597 210.448 12.4626L335.301 52.8527C336.95 53.3868 338.272 54.451 339.137 55.7863C340.228 57.4776 340.584 59.6019 339.929 61.6332L317.734 130.38C317.245 131.893 316.275 133.119 315.038 133.949C313.296 135.118 311.032 135.498 308.85 134.794Z" fill="white"/>
</mask>
<g mask="url(#mask1_68_3)">
<path d="M348.99 52.3492L199.649 4.03442L194.352 20.4402L343.694 68.755L348.99 52.3492Z" fill="#D06146" stroke="black" stroke-width="2.5" stroke-linecap="round" stroke-linejoin="round"/>
<path d="M316.267 53.3342C315.891 54.4914 314.626 55.1227 313.441 54.7383C312.257 54.3539 311.594 53.1036 311.97 51.9463C312.346 50.7891 313.611 50.1579 314.795 50.5423C315.984 50.9266 316.639 52.177 316.267 53.3342Z" fill="#8CE597" stroke="black" stroke-width="2.5" stroke-linecap="round" stroke-linejoin="round"/>
<path d="M325.083 56.1869C324.707 57.3441 323.442 57.9753 322.257 57.5909C321.073 57.2065 320.41 55.9562 320.786 54.799C321.162 53.6417 322.427 53.0105 323.611 53.3949C324.796 53.7793 325.454 55.0296 325.083 56.1869Z" fill="#8CE597" stroke="black" stroke-width="2.5" stroke-linecap="round" stroke-linejoin="round"/>
<path d="M333.894 59.0395C333.519 60.1968 332.253 60.828 331.069 60.4436C329.885 60.0592 329.222 58.8089 329.598 57.6516C329.974 56.4944 331.239 55.8632 332.423 56.2476C333.607 56.632 334.266 57.8823 333.894 59.0395Z" fill="#8CE597" stroke="black" stroke-width="2.5" stroke-linecap="round" stroke-linejoin="round"/>
</g>
<path d="M308.85 134.794L183.997 94.4041C182.356 93.874 181.038 92.818 180.173 91.4908C179.074 89.7994 178.71 87.667 179.369 85.6236L201.564 16.8771C202.15 15.0562 203.439 13.6522 205.048 12.851C206.657 12.0539 208.581 11.8597 210.448 12.4626L335.301 52.8527C336.95 53.3868 338.272 54.451 339.137 55.7863C340.228 57.4776 340.584 59.6019 339.929 61.6332L317.734 130.38C317.245 131.893 316.275 133.119 315.038 133.949C313.296 135.118 311.032 135.498 308.85 134.794Z" stroke="black" stroke-width="2.5" stroke-linecap="round" stroke-linejoin="round"/>
<path d="M254.704 52.3368L208.403 37.3575L206.515 43.206L252.816 58.1852L254.704 52.3368Z" fill="#8CE597" stroke="black" stroke-width="2.5" stroke-linecap="round" stroke-linejoin="round"/>
<path d="M250.498 65.3625L204.198 50.3833L202.309 56.2318L248.61 71.211L250.498 65.3625Z" fill="#8CE597" stroke="black" stroke-width="2.5" stroke-linecap="round" stroke-linejoin="round"/>
<path d="M246.298 78.3805L199.997 63.4012L198.109 69.2497L244.41 84.2289L246.298 78.3805Z" fill="#8CE597" stroke="black" stroke-width="2.5" stroke-linecap="round" stroke-linejoin="round"/>
<path d="M242.092 91.4062L195.791 76.427L193.903 82.2755L240.204 97.2547L242.092 91.4062Z" fill="#8CE597" stroke="black" stroke-width="2.5" stroke-linecap="round" stroke-linejoin="round"/>
<path d="M324.625 74.1668L262.097 53.9377L246.942 100.88L309.47 121.109L324.625 74.1668Z" fill="#F5C745" stroke="black" stroke-width="2.5" stroke-linecap="round" stroke-linejoin="round"/>
<path d="M262.098 53.9371L309.476 121.106" stroke="black" stroke-width="2.5" stroke-linecap="round" stroke-linejoin="round"/>
<path d="M324.63 74.1646L246.945 100.878" stroke="black" stroke-width="2.5" stroke-linecap="round" stroke-linejoin="round"/>
<path d="M145.461 194.15L68.3509 222.657L96.1342 297.964L173.244 269.457L145.461 194.15Z" stroke="black" stroke-width="2.5" stroke-linecap="round" stroke-linejoin="round"/>
<path d="M71.7291 215.56L61.1804 219.46L64.981 229.762L75.5297 225.862L71.7291 215.56Z" fill="#FFFEF8" stroke="black" stroke-width="2.5" stroke-linecap="round" stroke-linejoin="round"/>
<path d="M99.5069 290.865L88.9582 294.764L92.7588 305.066L103.308 301.166L99.5069 290.865Z" fill="#FFFEF8" stroke="black" stroke-width="2.5" stroke-linecap="round" stroke-linejoin="round"/>
<path d="M176.615 262.359L166.066 266.259L169.867 276.56L180.416 272.66L176.615 262.359Z" fill="#FFFEF8" stroke="black" stroke-width="2.5" stroke-linecap="round" stroke-linejoin="round"/>
<path d="M148.836 187.051L138.287 190.951L142.088 201.252L152.636 197.352L148.836 187.051Z" fill="#FFFEF8" stroke="black" stroke-width="2.5" stroke-linecap="round" stroke-linejoin="round"/>
<path d="M109.497 207.806C110.034 209.266 109.258 210.901 107.763 211.451C106.267 212.002 104.618 211.269 104.076 209.809C103.539 208.348 104.315 206.713 105.81 206.163C107.306 205.609 108.955 206.345 109.497 207.806Z" fill="black" stroke="black" stroke-width="2.5" stroke-linecap="round" stroke-linejoin="round"/>
<path d="M137.161 282.804C137.699 284.264 136.922 285.899 135.427 286.449C133.931 287 132.282 286.267 131.74 284.807C131.203 283.346 131.979 281.711 133.474 281.161C134.97 280.611 136.619 281.343 137.161 282.804Z" fill="black" stroke="black" stroke-width="2.5" stroke-linecap="round" stroke-linejoin="round"/>
<path d="M84.9409 259.319C85.4785 260.78 84.7024 262.415 83.2068 262.965C81.7113 263.515 80.0621 262.783 79.5204 261.322C78.9788 259.861 79.7589 258.227 81.2545 257.676C82.7501 257.126 84.3993 257.858 84.9409 259.319Z" fill="black" stroke="black" stroke-width="2.5" stroke-linecap="round" stroke-linejoin="round"/>
<path d="M162.052 230.813C162.59 232.274 161.814 233.908 160.318 234.459C158.823 235.013 157.173 234.277 156.632 232.816C156.09 231.355 156.87 229.72 158.366 229.17C159.861 228.62 161.511 229.352 162.052 230.813Z" fill="black" stroke="black" stroke-width="2.5" stroke-linecap="round" stroke-linejoin="round"/>
<path d="M143.923 255.791L119.865 224.521L121.878 223.776L120.41 219.803L102.209 226.532L103.676 230.505L105.871 229.692L107.722 269.172L103.385 270.774L104.852 274.748L107.932 273.611L119.355 269.386L123.054 268.019L121.587 264.045L118.798 265.077L117.355 253.881L126.276 250.644L132.488 260.015L128.935 261.326L130.402 265.299L134.893 263.641L146.623 259.303L148.6 258.571L147.133 254.597L143.915 255.787L143.923 255.791ZM115.422 245.173L114.371 236.02L116.724 235.151L122.072 242.713L115.418 245.173H115.422Z" fill="#F5C745" stroke="black" stroke-width="2.5" stroke-linecap="round" stroke-linejoin="round"/>
<path d="M243.412 295.756C276.563 295.756 303.437 269.51 303.437 237.133C303.437 204.757 276.563 178.51 243.412 178.51C210.261 178.51 183.386 204.757 183.386 237.133C183.386 269.51 210.261 295.756 243.412 295.756Z" fill="#FFD8A4"/>
<path d="M366.385 384.172L240.651 421.721C239.002 422.215 237.316 422.093 235.853 421.487C233.986 420.718 232.482 419.164 231.868 417.108L211.233 347.88C210.687 346.047 210.954 344.158 211.827 342.588C212.7 341.018 214.179 339.767 216.059 339.205L341.793 301.655C343.45 301.162 345.144 301.287 346.615 301.898C348.47 302.671 349.966 304.221 350.576 306.268L371.211 375.496C371.664 377.022 371.559 378.58 371.009 379.967C370.237 381.918 368.584 383.516 366.389 384.172H366.385Z" fill="black" stroke="black" stroke-width="2.5" stroke-linecap="round" stroke-linejoin="round"/>
<path d="M360.229 380.939L234.495 418.488C232.846 418.982 231.16 418.86 229.697 418.254C227.829 417.485 226.326 415.931 225.715 413.875L205.08 344.647C204.535 342.814 204.802 340.925 205.675 339.355C206.548 337.785 208.027 336.535 209.907 335.972L335.641 298.422C337.298 297.929 338.992 298.054 340.463 298.665C342.318 299.438 343.814 300.988 344.424 303.035L365.059 372.263C365.512 373.789 365.407 375.347 364.857 376.734C364.085 378.685 362.432 380.283 360.237 380.939H360.229Z" fill="#FFD8A4" stroke="black" stroke-width="2.5" stroke-linecap="round" stroke-linejoin="round"/>
<mask id="mask2_68_3" style="mask-type:luminance" maskUnits="userSpaceOnUse" x="204" y="298" width="162" height="121">
<path d="M360.229 380.939L234.495 418.488C232.846 418.982 231.16 418.86 229.697 418.254C227.829 417.485 226.326 415.931 225.715 413.875L205.08 344.647C204.535 342.814 204.802 340.925 205.675 339.355C206.548 337.785 208.027 336.535 209.907 335.972L335.641 298.422C337.298 297.929 338.992 298.054 340.463 298.665C342.318 299.438 343.814 300.988 344.424 303.035L365.059 372.263C365.512 373.789 365.407 375.347 364.857 376.734C364.085 378.685 362.432 380.283 360.237 380.939H360.229Z" fill="white"/>
</mask>
<g mask="url(#mask2_68_3)">
<path d="M346.617 290.25L196.219 335.16L201.142 351.682L351.54 306.772L346.617 290.25Z" fill="#284D82" stroke="black" stroke-width="2.5" stroke-linecap="round" stroke-linejoin="round"/>
<path d="M320.224 309.615C320.572 310.78 319.884 312.018 318.692 312.374C317.496 312.73 316.247 312.075 315.899 310.905C315.551 309.74 316.239 308.502 317.431 308.146C318.623 307.79 319.876 308.445 320.224 309.615Z" fill="#8CE597" stroke="black" stroke-width="2.5" stroke-linecap="round" stroke-linejoin="round"/>
<path d="M329.1 306.964C329.448 308.13 328.761 309.368 327.569 309.724C326.376 310.08 325.123 309.424 324.775 308.255C324.428 307.09 325.115 305.851 326.307 305.495C327.5 305.139 328.753 305.795 329.1 306.964Z" fill="#8CE597" stroke="black" stroke-width="2.5" stroke-linecap="round" stroke-linejoin="round"/>
<path d="M337.977 304.314C338.325 305.479 337.637 306.717 336.445 307.073C335.249 307.43 334 306.774 333.652 305.605C333.304 304.439 333.991 303.201 335.184 302.845C336.38 302.489 337.629 303.145 337.977 304.314Z" fill="#8CE597" stroke="black" stroke-width="2.5" stroke-linecap="round" stroke-linejoin="round"/>
</g>
<path d="M360.229 380.939L234.495 418.488C232.846 418.982 231.16 418.86 229.697 418.254C227.829 417.485 226.326 415.931 225.715 413.875L205.08 344.647C204.535 342.814 204.802 340.925 205.675 339.355C206.548 337.785 208.027 336.535 209.907 335.972L335.641 298.422C337.298 297.929 338.992 298.054 340.463 298.665C342.318 299.438 343.814 300.988 344.424 303.035L365.059 372.263C365.512 373.789 365.407 375.347 364.857 376.734C364.085 378.685 362.432 380.283 360.237 380.939H360.229Z" stroke="black" stroke-width="2.5" stroke-linecap="round" stroke-linejoin="round"/>
<path d="M252.187 395.173C245.991 374.388 257.802 352.509 278.57 346.306C299.334 340.103 321.19 351.927 327.387 372.716" stroke="black" stroke-width="2.5" stroke-linecap="round" stroke-linejoin="round"/>
<path d="M237.337 358.623L322.989 333.039" stroke="black" stroke-width="2.5" stroke-linecap="round" stroke-linejoin="round"/>
<path d="M279.813 350.68C282.336 350.351 284.116 348.036 283.787 345.51C283.459 342.984 281.146 341.202 278.623 341.531C276.099 341.86 274.32 344.175 274.648 346.701C274.977 349.227 277.289 351.009 279.813 350.68Z" fill="#FFFEF8" stroke="black" stroke-width="2.5" stroke-linecap="round" stroke-linejoin="round"/>
<path d="M252.381 397.164C253.66 397.164 254.697 396.126 254.697 394.846C254.697 393.565 253.66 392.527 252.381 392.527C251.102 392.527 250.065 393.565 250.065 394.846C250.065 396.126 251.102 397.164 252.381 397.164Z" fill="black" stroke="black" stroke-width="2.5" stroke-linecap="round" stroke-linejoin="round"/>
<path d="M327.31 374.784C328.589 374.784 329.626 373.746 329.626 372.466C329.626 371.185 328.589 370.147 327.31 370.147C326.031 370.147 324.994 371.185 324.994 372.466C324.994 373.746 326.031 374.784 327.31 374.784Z" fill="black" stroke="black" stroke-width="2.5" stroke-linecap="round" stroke-linejoin="round"/>
<path d="M239.65 358.874C239.782 357.6 238.857 356.461 237.584 356.329C236.312 356.198 235.174 357.124 235.043 358.398C234.911 359.672 235.836 360.811 237.109 360.942C238.381 361.073 239.519 360.147 239.65 358.874Z" fill="black" stroke="black" stroke-width="2.5" stroke-linecap="round" stroke-linejoin="round"/>
<path d="M322.989 335.357C324.268 335.357 325.305 334.319 325.305 333.038C325.305 331.758 324.268 330.72 322.989 330.72C321.71 330.72 320.673 331.758 320.673 333.038C320.673 334.319 321.71 335.357 322.989 335.357Z" fill="black" stroke="black" stroke-width="2.5" stroke-linecap="round" stroke-linejoin="round"/>
<path d="M196.366 161.196V248.92C196.366 258.105 203.807 265.554 212.983 265.554C222.158 265.554 229.6 258.105 229.6 248.92V203.12C229.6 193.935 237.041 186.486 246.217 186.486H247.992C257.167 186.486 264.609 193.935 264.609 203.12V228.956" stroke="black" stroke-width="2.5" stroke-linecap="round" stroke-linejoin="round"/>
<path d="M264.609 280.465C261.213 280.465 258.012 279.648 255.182 278.195C248.501 274.764 243.929 267.8 243.929 259.769V241.451C243.929 235.734 246.245 230.562 249.984 226.815C253.727 223.069 258.897 220.754 264.605 220.754C269.867 220.754 274.669 222.721 278.315 225.962C282.588 229.753 285.28 235.288 285.28 241.455V259.773C285.28 266.441 282.131 272.369 277.24 276.156C273.744 278.863 269.362 280.469 264.601 280.469L264.609 280.465Z" fill="#FFFEF8" stroke="black" stroke-width="2.5" stroke-linecap="round" stroke-linejoin="round"/>
<path d="M243.933 241.447C243.933 241.447 264.265 253.509 285.288 241.447H243.933Z" fill="white"/>
<path d="M243.933 241.447C243.933 241.447 264.265 253.509 285.288 241.447" stroke="black" stroke-width="2.5" stroke-linecap="round" stroke-linejoin="round"/>
<path d="M264.609 246.804V220.75" stroke="black" stroke-width="2.5" stroke-linecap="round" stroke-linejoin="round"/>
<path d="M264.681 251.599C263.744 251.599 262.895 251.218 262.276 250.607C261.654 249.988 261.27 249.135 261.27 248.188V240.548C261.27 239.606 261.65 238.752 262.268 238.137C262.887 237.518 263.74 237.137 264.677 237.137C265.862 237.137 266.905 237.74 267.515 238.659C267.875 239.201 268.089 239.852 268.089 240.552V248.192C268.089 249.135 267.709 249.988 267.09 250.603C266.472 251.222 265.619 251.603 264.681 251.603V251.599Z" fill="white" stroke="black" stroke-width="2.5" stroke-linecap="round" stroke-linejoin="round"/>
<path d="M266.799 110.023L274.572 143.028C274.92 144.497 274.762 145.966 274.213 147.241C273.429 149.07 271.84 150.51 269.787 150.992L126.215 184.875C124.473 185.288 122.722 184.936 121.304 184.034C119.885 183.131 118.798 181.679 118.377 179.89L110.604 146.885C110.184 145.096 110.507 143.312 111.376 141.867C112.241 140.427 113.648 139.33 115.394 138.917L258.966 105.034C260.708 104.621 262.458 104.973 263.877 105.875C265.296 106.778 266.383 108.23 266.803 110.019L266.799 110.023Z" fill="black" stroke="black" stroke-width="2.5" stroke-linecap="round" stroke-linejoin="round"/>
<path d="M263.934 114.793L271.707 147.799C272.054 149.268 271.897 150.737 271.347 152.011C270.563 153.84 268.974 155.281 266.921 155.762L123.349 189.646C121.607 190.059 119.857 189.707 118.438 188.804C117.019 187.902 115.932 186.449 115.511 184.661L107.738 151.655C107.318 149.867 107.641 148.082 108.51 146.638C109.375 145.197 110.782 144.101 112.528 143.688L256.1 109.804C257.842 109.392 259.592 109.744 261.011 110.646C262.43 111.548 263.517 113.001 263.938 114.789L263.934 114.793Z" fill="#FFFEF8" stroke="black" stroke-width="2.5" stroke-linecap="round" stroke-linejoin="round"/>
<path d="M156.365 181.857L145.54 135.899" stroke="black" stroke-width="2.5" stroke-linecap="round" stroke-linejoin="round"/>
<path d="M195.683 172.579L184.858 126.617" stroke="black" stroke-width="2.5" stroke-linecap="round" stroke-linejoin="round"/>
<path d="M234.224 163.483L223.399 117.521" stroke="black" stroke-width="2.5" stroke-linecap="round" stroke-linejoin="round"/>
<path d="M132.007 158.129L124.517 173.299C124.032 174.282 124.101 175.387 124.606 176.253C124.703 176.423 124.824 176.58 124.958 176.726C124.626 177.62 124.194 179.146 124.978 179.409C125.693 179.652 126.429 178.559 126.866 177.742C127.395 177.819 127.929 177.774 128.422 177.596C129.202 177.317 129.881 176.746 130.269 175.945L137.529 160.994L132.011 158.121L132.007 158.129Z" fill="white" stroke="black" stroke-width="2.5" stroke-linecap="round" stroke-linejoin="round"/>
<path d="M133.757 154.127C133.757 154.127 136.454 145.549 140.403 147.451C144.918 149.628 139.57 157.377 139.57 157.377L133.761 154.127H133.757Z" fill="#284D82" stroke="black" stroke-width="2.5" stroke-linecap="round" stroke-linejoin="round"/>
<path d="M131.247 157.696L138.285 161.273C139.303 161.791 140.479 161.739 141.433 161.229C142.007 160.925 142.501 160.456 142.836 159.849C143.248 159.104 143.349 158.275 143.18 157.518C142.978 156.608 142.387 155.795 141.49 155.333L134.469 151.72C133.483 151.21 132.347 151.242 131.405 151.704C130.766 152.015 130.213 152.529 129.861 153.205L129.841 153.241C129.521 153.856 129.408 154.52 129.477 155.151C129.594 156.207 130.221 157.174 131.239 157.696H131.247Z" fill="#284D82" stroke="black" stroke-width="2.5" stroke-linecap="round" stroke-linejoin="round"/>
<path d="M183.463 162.722L171.879 143.117L173.083 142.834L172.521 140.455L161.624 143.028L162.186 145.408L163.499 145.096L161.785 167.84L159.19 168.451L159.752 170.831L161.595 170.393L168.435 168.779L170.65 168.257L170.088 165.878L168.419 166.27L168.378 159.756L173.714 158.53L176.616 164.336L174.49 164.838L175.052 167.217L177.74 166.582L184.765 164.923L185.949 164.644L185.387 162.264L183.459 162.718L183.463 162.722ZM167.885 154.633L167.925 149.316L169.336 148.985L171.866 153.694L167.885 154.633Z" fill="#D06146" stroke="black" stroke-width="2.5" stroke-linecap="round" stroke-linejoin="round"/>
<path d="M210.214 132.969L200.99 153.929L209.854 157.652L219.135 136.749L210.214 132.969Z" fill="#F5C745" stroke="black" stroke-width="2.5" stroke-linecap="round" stroke-linejoin="round"/>
<path d="M210.214 132.969L211.52 130.052C211.661 129.74 211.855 129.469 212.094 129.247C212.801 128.579 213.864 128.349 214.802 128.741L219.196 130.578C219.826 130.841 220.279 131.335 220.509 131.917C220.736 132.5 220.74 133.176 220.457 133.803L219.135 136.745L210.214 132.965V132.969Z" fill="white" stroke="black" stroke-width="2.5" stroke-linecap="round" stroke-linejoin="round"/>
<path d="M200.99 153.929L201.232 162.329C201.245 162.758 201.503 163.086 201.843 163.236C202.182 163.385 202.607 163.365 202.95 163.094L209.858 157.656L200.994 153.929H200.99Z" fill="white" stroke="black" stroke-width="2.5" stroke-linecap="round" stroke-linejoin="round"/>
<path d="M205.072 161.419L201.148 159.4L201.212 162.475C201.22 162.888 201.459 163.203 201.782 163.357C202.126 163.523 202.562 163.503 202.91 163.211L205.072 161.415V161.419Z" fill="#402F35" stroke="black" stroke-width="2.5" stroke-linecap="round" stroke-linejoin="round"/>
<path d="M235.011 128.383L239.7 148.287L259.099 143.707L254.41 123.803L235.011 128.383Z" fill="white" stroke="black" stroke-width="2.5" stroke-linecap="round" stroke-linejoin="round"/>
<path d="M236.822 146.068L238.076 151.389L243.261 150.165L242.008 144.844L236.822 146.068Z" fill="#8CE597" stroke="black" stroke-width="2.5" stroke-linecap="round" stroke-linejoin="round"/>
<path d="M232.157 126.251L233.411 131.572L238.596 130.348L237.343 125.027L232.157 126.251Z" fill="#8CE597" stroke="black" stroke-width="2.5" stroke-linecap="round" stroke-linejoin="round"/>
<path d="M255.38 141.686L256.634 147.006L261.819 145.782L260.565 140.462L255.38 141.686Z" fill="#8CE597" stroke="black" stroke-width="2.5" stroke-linecap="round" stroke-linejoin="round"/>
<path d="M250.707 121.87L251.961 127.19L257.146 125.966L255.892 120.646L250.707 121.87Z" fill="#8CE597" stroke="black" stroke-width="2.5" stroke-linecap="round" stroke-linejoin="round"/>
<path d="M168.128 66.072C168.128 66.072 166.66 96.9978 139.998 106.851C113.337 116.707 92.7907 95.5169 92.7907 95.5169C92.7907 95.5169 92.3945 94.9828 92.0025 94.4446C91.954 93.781 91.9054 93.1174 91.9054 93.1174C91.9054 93.1174 93.7648 63.6483 120.427 53.7915C147.088 43.9347 168.281 66.4847 168.281 66.4847" fill="#FFFEF8"/>
<path d="M168.128 66.072C168.128 66.072 166.66 96.9978 139.998 106.851C113.337 116.707 92.7907 95.5169 92.7907 95.5169C92.7907 95.5169 92.3945 94.9828 92.0025 94.4446C91.954 93.781 91.9054 93.1174 91.9054 93.1174C91.9054 93.1174 93.7648 63.6483 120.427 53.7915C147.088 43.9347 168.281 66.4847 168.281 66.4847" stroke="black" stroke-width="2.5" stroke-linecap="round" stroke-linejoin="round"/>
<path d="M132.54 101.03C143.937 99.676 152.079 89.3296 150.726 77.9211C149.373 66.5126 139.038 58.362 127.641 59.7164C116.244 61.0707 108.102 71.417 109.455 82.8255C110.808 94.2341 121.144 102.385 132.54 101.03Z" fill="#F5C745" stroke="black" stroke-width="2.5" stroke-linecap="round" stroke-linejoin="round"/>
<path d="M132.811 87.985C136.997 86.4373 139.137 81.7856 137.591 77.5951C136.045 73.4046 131.398 71.2621 127.212 72.8097C123.026 74.3573 120.886 79.009 122.432 83.1996C123.978 87.3901 128.625 89.5326 132.811 87.985Z" fill="black" stroke="black" stroke-width="2.5" stroke-linecap="round" stroke-linejoin="round"/>
<path d="M86.873 73.8288C89.6621 75.419 92.5603 76.8068 95.5433 78.0005C95.798 78.1017 96.0971 77.8912 96.1658 77.6485C96.2467 77.3612 96.0688 77.1265 95.8142 77.0253C92.916 75.8681 90.0986 74.5045 87.3864 72.9548C86.8205 72.6311 86.3112 73.5051 86.8771 73.8288H86.873Z" fill="black"/>
<path d="M97.5523 57.0649C99.9614 59.0233 102.213 61.18 104.274 63.5026C104.707 63.9922 105.418 63.2719 104.99 62.7864C102.928 60.4638 100.677 58.3071 98.2677 56.3487C98.0575 56.1747 97.7584 56.1423 97.5523 56.3487C97.3744 56.5267 97.338 56.8909 97.5523 57.0649Z" fill="black"/>
<path d="M115.823 45.978C116.865 48.4139 117.912 50.8498 118.955 53.2816C119.064 53.5325 119.432 53.5891 119.646 53.4637C119.905 53.3099 119.937 53.0226 119.828 52.7718C118.785 50.3359 117.739 47.9 116.696 45.4682C116.587 45.2173 116.219 45.1607 116.005 45.2861C115.746 45.4399 115.713 45.7272 115.823 45.978Z" fill="black"/>
<path d="M137.488 42.8746C137.294 45.3671 136.967 47.8434 136.506 50.2995C136.458 50.5666 136.579 50.8458 136.858 50.9226C137.104 50.9914 137.428 50.8377 137.48 50.5706C137.957 48.0255 138.297 45.4561 138.499 42.8746C138.519 42.6035 138.252 42.3688 137.994 42.3688C137.703 42.3688 137.509 42.5994 137.488 42.8746Z" fill="black"/>
<path d="M155.205 47.0301C154.109 49.5226 153.014 52.0111 151.919 54.5036C151.81 54.7545 151.846 55.0458 152.101 55.1955C152.315 55.321 152.683 55.2643 152.792 55.0134C153.887 52.5209 154.983 50.0324 156.078 47.5399C156.187 47.2891 156.151 46.9977 155.896 46.848C155.682 46.7226 155.314 46.7792 155.205 47.0301Z" fill="black"/>
<path d="M108.126 105.491C106.966 107.907 105.713 110.274 104.363 112.588C104.036 113.151 104.909 113.661 105.236 113.098C106.582 110.784 107.839 108.417 109 106.001C109.117 105.754 109.068 105.455 108.818 105.309C108.595 105.179 108.244 105.244 108.126 105.491Z" fill="black"/>
<path d="M122.043 109.687C121.251 112.062 120.669 114.502 120.301 116.983C120.261 117.254 120.37 117.525 120.653 117.606C120.891 117.67 121.235 117.525 121.275 117.254C121.643 114.777 122.225 112.333 123.018 109.958C123.224 109.339 122.25 109.072 122.043 109.691V109.687Z" fill="black"/>
<path d="M139.542 107.296C140.326 109.691 141.114 112.091 141.898 114.486C142.1 115.101 143.075 114.838 142.872 114.219C142.088 111.823 141.304 109.424 140.516 107.029C140.314 106.414 139.34 106.677 139.542 107.296Z" fill="black"/>
<path d="M153.996 98.1753C155.88 99.8342 157.768 101.493 159.651 103.156C159.857 103.338 160.165 103.359 160.367 103.156C160.549 102.974 160.573 102.622 160.367 102.44C158.483 100.781 156.595 99.1221 154.712 97.4591C154.506 97.277 154.198 97.2568 153.996 97.4591C153.814 97.6412 153.79 97.9932 153.996 98.1753Z" fill="black"/>
<path d="M161.207 89.8197C163.52 90.6613 165.832 91.507 168.148 92.3487C168.402 92.4417 168.701 92.2435 168.77 91.9966C168.847 91.7134 168.673 91.4666 168.419 91.3735C166.106 90.5319 163.794 89.6862 161.478 88.8446C161.224 88.7515 160.924 88.9498 160.856 89.1966C160.779 89.4798 160.953 89.7267 161.207 89.8197Z" fill="black"/>
</svg>
