<svg width="92" height="75" viewBox="0 0 92 75" fill="none" xmlns="http://www.w3.org/2000/svg">
<g clip-path="url(#clip0_103_13)">
<path d="M45.0629 60.1392C50.812 60.1242 55.4082 59.361 59.774 57.4903C64.3628 55.5223 68.2302 52.6489 70.8184 48.249C72.1646 45.9518 72.953 43.4601 73.3323 40.8111C73.5926 39.0003 73.5108 37.1895 73.5479 35.3786C73.5703 34.0392 74.3214 33.2011 75.6378 33.2386C80.7027 33.3807 84.0569 30.7393 86.2435 26.4592C89.7688 19.575 87.4483 10.5208 80.4944 6.57738C75.0652 3.50196 67.427 5.02845 63.9017 10.7603C63.567 11.299 63.2695 11.8677 62.8084 12.3167C62.1316 12.9752 61.2094 13.0575 60.4359 12.5412C59.6847 12.0398 59.3649 11.1045 59.6698 10.2589C60.2648 8.59025 61.2243 7.13859 62.444 5.874C65.6792 2.52171 69.6433 0.927878 74.2842 0.920395C80.4572 0.905429 85.18 3.62916 88.6532 8.62018C90.2225 10.8725 91.1745 13.4167 91.6653 16.1628C92.4016 20.226 91.9479 24.1021 90.1927 27.7986C87.7905 32.8495 83.8784 36.0745 78.4045 37.2718C77.75 37.414 77.6682 37.7208 77.6534 38.282C77.512 43.5049 76.1213 48.3089 72.9604 52.5217C70.692 55.5373 67.8881 57.9168 64.5711 59.6902C63.5373 60.2439 63.4926 60.2365 64.1025 61.2392C65.8652 64.135 67.189 67.2104 68.1112 70.4729C68.3567 71.3334 68.6021 72.2089 68.669 73.0919C68.7211 73.7204 68.4013 74.3191 67.7914 74.6857C67.1816 75.0599 66.5643 75.1122 65.9172 74.798C65.0396 74.3715 64.6603 73.5858 64.4149 72.6878C63.5224 69.4403 62.2209 66.3724 60.4136 63.5364C60.3987 63.5139 60.3913 63.499 60.3764 63.4765C59.8062 62.5387 59.003 62.2244 57.9667 62.5337C53.363 63.8955 48.6626 64.4867 43.8804 64.2173C40.3476 64.0228 36.8521 63.4915 33.4978 62.2942C32.8582 62.0697 32.4789 62.2269 32.0996 62.7881C30.1064 65.7139 28.6933 68.9015 27.7116 72.2987C27.4587 73.1817 27.2504 74.0796 26.3803 74.6184C25.6737 75.0524 24.9969 75.1422 24.2681 74.7007C23.5466 74.2667 23.3756 73.5858 23.45 72.815C23.6285 71.0641 24.1639 69.4029 24.7738 67.7791C25.7035 65.3023 26.834 62.9228 28.2619 60.6929C28.6264 60.1167 28.1504 60.0419 27.8752 59.8848C26.2613 59.0168 24.7292 58.029 23.3012 56.8692C20.2519 54.3999 17.9017 51.3918 16.3547 47.7701C15.0458 44.7022 14.421 41.4846 14.369 38.1473C14.369 37.6609 14.25 37.4065 13.6996 37.2868C10.6949 36.6208 8.00259 35.3263 5.74907 33.1637C3.027 30.5522 1.19741 27.4319 0.438801 23.7205C-0.453681 19.3879 0.0297471 15.1826 1.91883 11.1868C4.42522 5.90393 8.47114 2.31219 14.1979 1.25712C20.8171 0.0374255 26.6034 1.80336 30.8352 7.42294C31.4749 8.26849 31.988 9.19636 32.345 10.2065C32.6723 11.1194 32.2558 12.182 31.4228 12.6235C30.4708 13.1173 29.504 12.9003 28.909 12.0024C28.0091 10.648 27.1909 9.24874 25.9415 8.17122C23.7326 6.26311 21.2039 5.18558 18.2736 5.08083C12.4947 4.86382 8.50089 7.6998 5.82344 12.601C4.40291 15.2125 3.94923 18.0859 4.21697 21.079C4.55909 24.8429 5.98706 28.038 8.85044 30.5148C10.918 32.3032 13.2757 33.3733 16.087 33.2535C17.7901 33.1787 18.4818 33.927 18.4446 35.6555C18.3851 38.282 18.5041 40.8785 19.1958 43.4376C20.4453 48.032 23.026 51.6687 26.8488 54.4373C30.0246 56.742 33.5424 58.276 37.3652 59.144C40.2286 59.795 43.1217 60.199 45.048 60.1467L45.0629 60.1392Z" fill="#E0593D"/>
<path d="M52.3738 37.9602C52.3738 39.7411 52.3887 41.2077 51.8978 42.6145C51.2508 44.4702 49.9939 45.7049 48.1345 46.3409C47.7998 46.4531 47.309 46.4531 47.3239 46.9695C47.3387 47.4708 47.6139 47.8674 48.0527 48.1068C48.9229 48.5932 50.0459 48.2565 50.5517 47.3885C50.6483 47.2239 50.7302 47.0518 50.8343 46.9021C51.2656 46.2586 51.7639 46.094 52.3143 46.4082C52.9167 46.7525 53.1324 47.396 52.8275 48.032C51.7491 50.3143 48.7518 51.6911 46.4091 49.5735C46.0893 49.2891 45.9033 49.3041 45.5909 49.5884C43.2928 51.6836 40.1394 50.2469 39.1948 47.8898C38.942 47.2688 39.1651 46.7749 39.6857 46.4307C40.2435 46.0566 40.7195 46.2885 41.0988 46.7525C41.3517 47.0592 41.5302 47.4259 41.7979 47.7252C42.6458 48.668 44.2597 48.4361 44.6687 47.3286C44.8323 46.8871 44.7877 46.6028 44.2522 46.4307C41.4558 45.5552 40.0278 43.5947 39.7675 40.6914C39.5221 37.9377 39.708 35.229 40.2658 32.5501C40.6302 30.7767 41.1285 29.0257 42.3334 27.589C44.282 25.2619 48.075 25.3816 49.8823 27.806C50.7822 29.0108 51.2582 30.3801 51.6078 31.7944C52.1284 33.927 52.4705 36.0895 52.3738 37.9751V37.9602Z" fill="#E0593D"/>
<path d="M83.4173 21.6926C83.4396 25.6958 80.3606 29.0257 76.3072 29.2801C74.7454 29.3774 73.9867 28.9434 73.4438 27.4693C72.3654 24.5061 70.9449 21.7449 69.1227 19.1709C68.2079 17.8763 68.2823 16.9335 69.4053 15.826C71.1903 14.0676 73.3769 13.3268 75.8684 13.5213C78.4194 13.7234 80.4572 14.8458 81.967 16.9485C82.9711 18.3403 83.3429 19.9191 83.4247 21.6926H83.4173Z" fill="#E0593D"/>
<path d="M15.7969 29.2876C12.2568 29.2353 9.17026 26.3619 8.69427 22.6729C8.16621 18.5873 10.4644 15.018 14.3913 13.8506C17.4852 12.9303 20.2147 13.6561 22.5575 15.8111C23.6805 16.8438 23.7698 17.809 22.9145 19.0811C21.4493 21.2511 20.0734 23.4586 19.1661 25.9279C18.9876 26.4143 18.8165 26.9006 18.6231 27.3795C18.043 28.8686 17.3811 29.3101 15.8044 29.2876H15.7969Z" fill="#E0593D"/>
<path d="M25.168 36.0371C25.1382 33.1937 27.0422 30.5822 30.4708 30.5597C33.8623 30.5373 35.8108 33.1937 35.8406 35.9473C35.8629 38.716 33.6168 41.29 30.4485 41.3424C27.6223 41.3873 25.0118 38.686 25.1754 36.0371H25.168ZM28.3958 32.812C27.5331 32.812 26.9976 33.2984 26.9827 34.1215C26.9678 34.8997 27.5628 35.4834 28.3735 35.4834C29.0949 35.4834 29.7717 34.8548 29.7791 34.1814C29.7866 33.4032 29.2065 32.827 28.4032 32.8195L28.3958 32.812Z" fill="#E0593D"/>
<path d="M61.5292 41.3275C58.703 41.3275 56.2264 38.9105 56.2561 36.0746C56.2933 33.1189 58.2047 30.4924 61.611 30.5523C64.9057 30.6121 66.8692 32.9767 66.951 35.9773C67.0328 38.8657 64.4744 41.32 61.5217 41.3275H61.5292ZM59.6029 32.8121C58.6956 32.7971 58.1229 33.3434 58.1303 34.2188C58.1303 34.9596 58.7402 35.461 59.6178 35.461C60.3466 35.461 60.8896 34.9147 60.9044 34.1814C60.9193 33.276 60.488 32.827 59.6029 32.8121Z" fill="#E0593D"/>
<path d="M74.6859 7.4529C76.8947 7.40052 78.7913 7.90935 80.5242 9.00184C81.0448 9.33108 81.4985 9.74264 81.6993 10.3562C81.9521 11.1344 81.7588 11.8603 81.1787 12.3466C80.5985 12.8255 79.8399 12.8929 79.1483 12.4589C77.936 11.6956 76.6121 11.3589 75.2065 11.3514C72.715 11.3365 70.6027 12.2643 68.8401 14.0378C68.1261 14.7561 67.3824 14.9132 66.6907 14.5616C65.7387 14.0752 65.3966 13.0051 66.0065 12.0399C67.2262 10.1018 68.9591 8.77736 71.1234 8.05901C72.3282 7.66242 73.5554 7.34814 74.6859 7.46039V7.4529Z" fill="#E0593D"/>
<path d="M17.1357 7.43045C20.7353 7.52773 23.7177 8.86715 25.8671 11.8603C26.529 12.7806 26.4398 13.6187 25.7109 14.2622C24.9821 14.9132 24.0598 14.8983 23.2417 14.15C22.2525 13.2446 21.2708 12.3466 19.9618 11.9052C17.6116 11.112 15.3209 11.097 13.112 12.3541C12.0783 12.9453 11.1188 12.833 10.5313 12.0473C9.95117 11.2766 10.0925 10.2664 10.918 9.44332C11.3196 9.04673 11.7733 8.71749 12.3014 8.48553C13.8409 7.81956 15.4325 7.37059 17.1431 7.42297L17.1357 7.43045Z" fill="#E0593D"/>
<path d="M51.6598 11.3439C50.0757 11.0221 48.313 10.4758 46.8107 9.3235C45.8736 8.60515 45.7694 7.57253 46.3942 6.56235C47.361 4.99096 48.8411 3.99575 50.336 3.02299C50.9607 2.61144 51.6003 2.21485 52.3515 2.05023C53.3258 1.84071 54.1067 2.18492 54.5232 3.02299C54.9323 3.8461 54.7538 4.78144 53.9877 5.35762C53.1994 5.94876 52.3589 6.46507 51.5483 7.0188C51.4144 7.10859 51.221 7.17594 51.2433 7.37049C51.2656 7.57253 51.4739 7.56504 51.6226 7.61742C51.9276 7.73715 52.2325 7.85687 52.5374 7.9766C53.4671 8.32829 54.0026 9.08405 53.8613 9.88471C53.7051 10.7976 52.9614 11.3513 51.6598 11.3439Z" fill="#E0593D"/>
<path d="M41.9913 10.3562C40.3327 10.3636 39.3882 8.9868 39.9981 7.67731C41.1732 5.14813 42.7424 2.86588 44.6092 0.808114C45.7992 -0.508857 47.5767 -0.149683 48.0973 1.40674C48.2535 1.86319 48.1717 2.29719 47.9932 2.70874C47.837 3.0754 47.6288 3.41961 47.4057 3.74885C46.1116 5.64948 44.81 7.54262 43.5085 9.44325C43.092 10.0494 42.5119 10.3487 41.9987 10.3636L41.9913 10.3562Z" fill="#E0593D"/>
<path d="M24.0152 39.8608C24.4243 39.8234 24.8259 39.988 25.1011 40.3247C25.8522 41.2376 26.7745 41.9635 27.6595 42.7417C28.1875 43.2056 28.4404 43.7893 28.2396 44.5151C27.9942 45.4056 27.0496 45.9742 26.2018 45.6151C24.573 44.9117 23.3458 43.6995 22.5872 42.1131C22.0443 40.9832 22.8103 39.8608 24.0152 39.8683V39.8608Z" fill="#E0593D"/>
<path d="M65.3594 45.6975C64.1323 45.6975 63.3885 44.4703 63.9091 43.3853C64.0951 42.9962 64.3926 42.6969 64.7347 42.435C65.4859 41.8663 66.1329 41.1928 66.7353 40.467C67.2634 39.8235 68.0369 39.6514 68.6839 39.9881C69.3979 40.3622 69.7028 41.0581 69.5169 41.8962C69.2343 43.1533 66.832 45.473 65.59 45.6825C65.5007 45.6975 65.404 45.6975 65.3669 45.7049L65.3594 45.6975Z" fill="#E0593D"/>
</g>
<defs>
<clipPath id="clip0_103_13">
<rect width="92" height="75" fill="white"/>
</clipPath>
</defs>
</svg>
